<?xml version="1.0" encoding="utf-8" ?>
<!DOCTYPE SVG PUBLIC "-//W3C//DTD SVG 1.1//EN" "http://www.w3.org/Graphics/SVG/1.1/DTD/svg11.dtd">
<svg version="1.1" id="Layer_1" xmlns="http://www.w3.org/2000/svg" xmlns:xlink="http://www.w3.org/1999/xlink" x="0px" y="0px"
     viewBox="0 0 159.7 119.8" enable-background="new 0 0 159.7 119.8" xml:space="preserve">
<g>
<polygon fill="#CDCCCC" points="51.7,87.6 55,87.6 53.4,83.7 	" />
<path fill="#CDCCCC" d="M80.9,70c-1.1,0-1.8,0.7-2,1.8h3.9C82.7,70.7,82,70,80.9,70z" />
<path fill="#CDCCCC" d="M91.3,85.4c-1.2,0-2.1,0.9-2.1,2.2c0,1.3,0.9,2.2,2.1,2.2c1.2,0,2.1-0.9,2.1-2.2
		C93.4,86.3,92.6,85.4,91.3,85.4z" />
<path fill="#CDCCCC" d="M81.1,88.9c0,0.6,0.5,1,1.3,1c1,0,1.9-0.5,1.9-1.3V88h-1.8C81.5,88,81.1,88.2,81.1,88.9z" />
<path fill="#CDCCCC" d="M72.6,70c-1.2,0-2,0.9-2,2.1c0,1.2,0.8,2.1,2,2.1c1.1,0,2-0.9,2-2.1C74.6,70.9,73.8,70,72.6,70z" />
<path fill="#CDCCCC" d="M66.2,88.9c0,0.6,0.5,1,1.3,1c1,0,1.9-0.5,1.9-1.3V88h-1.8C66.6,88,66.2,88.2,66.2,88.9z" />
<path fill="#CDCCCC" d="M104,72.3c0-1.3-0.9-2.2-2.1-2.2c-1.2,0-2.1,0.9-2.1,2.2c0,1.3,0.9,2.2,2.1,2.2
		C103.1,74.5,104,73.6,104,72.3z" />
<path fill="#CDCCCC" d="M103,85.3c-1.1,0-1.8,0.7-2,1.8h3.9C104.8,86,104.1,85.3,103,85.3z" />
<path fill="#CDCCCC" d="M63.3,73.6c0,0.6,0.5,1,1.3,1c1,0,1.9-0.5,1.9-1.3v-0.6h-1.8C63.7,72.7,63.3,72.9,63.3,73.6z" />
<path fill="#CDCCCC" d="M89.6,38.4c0.8,0,1.6,0.1,2.4,0.4l-2.2-4.5c-1.1-3.3-2.2-4.5-4.2-4.5H70.9c-2,0-3,1-4.2,4.5l-2.3,4.4
		c0.7-0.2,1.4-0.3,2.1-0.3H89.6z" />
<path fill="#CDCCCC" d="M83,45h-9.5c-0.5,0-0.8,0.4-0.8,0.8c0,0.5,0.4,0.8,0.8,0.8H83c0.5,0,0.8-0.4,0.8-0.8
		C83.8,45.3,83.5,45,83,45z" />
<path fill="#CDCCCC" d="M87.5,44.3c-0.7,0-1.3,0.6-1.3,1.3c0,0.7,0.6,1.3,1.3,1.3h4.1c0.7,0,1.3-0.6,1.3-1.3c0-0.7-0.6-1.3-1.3-1.3
		H87.5z" />
<path fill="#CDCCCC" d="M64.6,46.9h4.1c0.7,0,1.3-0.6,1.3-1.3c0-0.7-0.6-1.3-1.3-1.3h-4.1c-0.7,0-1.3,0.6-1.3,1.3
		C63.2,46.3,63.8,46.9,64.6,46.9z" />
<path fill="#CDCCCC" d="M0,0v119.8h159.7V0H0z M60.5,47.7c0-0.2,0-0.5,0.1-0.7c-0.1-0.3-0.1-0.7-0.1-1.1v-2.4
		c0-0.9,0.3-1.7,0.7-2.5l3.2-7.6c1.1-3.1,2.5-6.1,6.4-6.1h14.7c3.8,0,5.4,2.9,6.4,6.1l0,0.1l3,7.6c0,0.2,0.1,0.3,0.1,0.5
		c0.3,0.6,0.4,1.3,0.4,2V46c0,0.4,0,0.7-0.1,1.1c0.1,0.2,0.1,0.4,0.1,0.7v7c0,1-0.8,1.9-1.9,1.9h-3.6c-1,0-1.9-0.8-1.9-1.9v-3.5
		H68.1v3.5c0,1-0.8,1.9-1.9,1.9h-3.9c-1,0-1.9-0.8-1.9-1.9V47.7z M64.3,75.7c-1.5,0-2.4-0.9-2.4-2.1c0-1.2,0.9-2,2.6-2h2.1v-0.2
		c0-0.9-0.5-1.4-1.6-1.4c-0.7,0-1.3,0.2-2,0.7l-0.6-1c0.9-0.6,1.6-0.9,2.9-0.9c1.7,0,2.7,0.9,2.7,2.4l0,4.5h-1.4v-0.8
		C66,75.4,65.2,75.7,64.3,75.7z M49.1,68.9h1.5v1.3c0.5-1,1.3-1.4,2.5-1.4c1.2,0,2,0.6,2.4,1.6c0.4-1.1,1.3-1.6,2.6-1.6
		c1.6,0,2.5,1,2.5,2.6v4.2H59v-3.8c0-1-0.6-1.7-1.6-1.7c-1.2,0-1.9,0.9-1.9,2.1v3.4h-1.5v-3.8c0-1-0.6-1.7-1.6-1.7
		c-1.2,0-1.9,0.9-1.9,2.1v3.4h-1.5V68.9z M46.9,75.7h-1.5v-8.9h1.5V75.7z M56.5,91l-0.9-2h-4.5l-0.9,2h-1.6l3.9-8.9h1.5l3.9,8.9
		H56.5z M61.9,91h-1.5l-2.6-6.8h1.5l1.9,5.4l1.9-5.4h1.5L61.9,91z M69.5,91v-0.8c-0.5,0.6-1.3,0.9-2.2,0.9c-1.5,0-2.4-0.9-2.4-2.1
		c0-1.2,0.9-2,2.6-2h2.1v-0.2c0-0.9-0.5-1.4-1.6-1.4c-0.7,0-1.3,0.2-2,0.7l-0.6-1c0.9-0.6,1.6-0.9,2.9-0.9c1.7,0,2.7,0.9,2.7,2.4
		l0,4.5H69.5z M74.3,91h-1.5v-6.8h1.5V91z M73.6,83.1c-0.5,0-0.9-0.4-0.9-0.9c0-0.5,0.4-0.9,0.9-0.9s0.9,0.4,0.9,0.9
		C74.4,82.8,74.1,83.1,73.6,83.1z M76,75c0,2-1.4,3.2-3.5,3.2c-1.1,0-2-0.3-2.8-0.9l0.6-1.1c0.6,0.5,1.3,0.7,2.1,0.7
		c1.3,0,2.1-0.8,2.1-1.9v-0.9c-0.5,0.7-1.2,1.1-2.2,1.1c-1.8,0-3.1-1.3-3.1-3.3c0-1.9,1.2-3.2,3-3.2c1,0,1.8,0.4,2.3,1.1v-1.1H76V75
		z M78,91h-1.5v-9.5H78V91z M77.5,72.3c0-2.1,1.4-3.4,3.4-3.5c2.4,0,3.4,1.6,3.2,4h-5.1c0.2,1,1,1.7,2.1,1.7c0.7,0,1.4-0.3,1.9-0.8
		l0.8,0.8c-0.7,0.7-1.6,1.1-2.8,1.1C78.8,75.7,77.5,74.3,77.5,72.3z M84.3,91v-0.8c-0.5,0.6-1.3,0.9-2.2,0.9c-1.5,0-2.4-0.9-2.4-2.1
		c0-1.2,0.9-2,2.6-2h2.1v-0.2c0-0.9-0.5-1.4-1.6-1.4c-0.7,0-1.3,0.2-2,0.7l-0.6-1c0.9-0.6,1.6-0.9,2.9-0.9c1.7,0,2.7,0.9,2.7,2.4
		l0,4.5H84.3z M91.7,91c-1.1,0-1.9-0.4-2.4-1.2V91h-1.5v-9.5h1.5v3.9c0.5-0.8,1.3-1.2,2.4-1.2c1.9,0,3.2,1.4,3.2,3.5
		C94.9,89.7,93.6,91,91.7,91z M90.5,69.3v6.4H89v-8.9h1.5l4.8,6.4v-6.4h1.5v8.9h-1.5L90.5,69.3z M98,91h-1.5v-9.5H98V91z M98.4,72.3
		c0-2.1,1.4-3.4,3.5-3.4c2.1,0,3.5,1.4,3.5,3.4c0,2-1.4,3.4-3.5,3.4C99.8,75.7,98.4,74.3,98.4,72.3z M106.2,88.2H101
		c0.2,1,1,1.7,2.1,1.7c0.7,0,1.4-0.3,1.9-0.8l0.8,0.8c-0.7,0.7-1.6,1.1-2.8,1.1c-2.1,0-3.5-1.4-3.5-3.4c0-2.1,1.4-3.4,3.4-3.5
		C105.4,84.1,106.3,85.7,106.2,88.2z M109.2,75.7c-1,0-1.9-0.6-1.9-2v-3.5h-1v-1.1h1v-1.9h1.5v1.9h2v1.1h-2v3.3
		c0,0.7,0.3,0.9,0.7,0.9c0.3,0,0.6-0.1,1-0.3l0.4,1.1C110.3,75.6,109.7,75.7,109.2,75.7z" />
</g>
</svg>
