<svg xmlns="http://www.w3.org/2000/svg" xmlns:xlink="http://www.w3.org/1999/xlink" version="1.1" id="Layer_1" x="0px" y="0px" viewBox="280 188.5 640 423" enable-background="new 280 188.5 640 423" xml:space="preserve">
<g>
	<polygon fill="#CDCCCC" points="487.2,510.4 500.4,510.4 494,494.8"/>
	<path fill="#CDCCCC" d="M604.2 440.2c-4.4 0-7.2 2.8-8 7.2h15.6C611.4 443 608.6 440.2 604.2 440.2z"/>
	<path fill="#CDCCCC" d="M645.9 501.6c-4.8 0-8.4 3.6-8.4 8.8c0 5.2 3.6 8.8 8.4 8.8c4.8 0 8.4-3.6 8.4-8.8 C654.3 505.2 651.1 501.6 645.9 501.6z"/>
	<path fill="#CDCCCC" d="M605 515.6c0 2.4 2 4 5.2 4c4 0 7.6-2 7.6-5.2V512h-7.2C606.6 512 605 512.8 605 515.6z"/>
	<path fill="#CDCCCC" d="M570.9 440.2c-4.8 0-8 3.6-8 8.4c0 4.8 3.2 8.4 8 8.4c4.4 0 8-3.6 8-8.4C579 443.8 575.8 440.2 570.9 440.2 z"/>
	<path fill="#CDCCCC" d="M545.3 515.6c0 2.4 2 4 5.2 4c4 0 7.6-2 7.6-5.2V512h-7.2C546.9 512 545.3 512.8 545.3 515.6z"/>
	<path fill="#CDCCCC" d="M696.8 449.4c0-5.2-3.6-8.8-8.4-8.8s-8.4 3.6-8.4 8.8c0 5.2 3.6 8.8 8.4 8.8S696.8 454.6 696.8 449.4z"/>
	<path fill="#CDCCCC" d="M692.8 501.2c-4.4 0-7.2 2.8-8 7.2h15.6C700 504 697.2 501.2 692.8 501.2z"/>
	<path fill="#CDCCCC" d="M533.7 454.6c0 2.4 2 4 5.2 4c4 0 7.6-2 7.6-5.2V451h-7.2C535.3 451 533.7 451.8 533.7 454.6z"/>
	<path fill="#CDCCCC" d="M639.1 314.3c3.2 0 6.4 0.4 9.6 1.6l-8.8-17.9c-4.4-13.2-8.8-17.9-16.8-17.9h-58.9c-8 0-12 4-16.8 17.9 l-9.2 17.5c2.8-0.8 5.6-1.2 8.4-1.2L639.1 314.3L639.1 314.3z"/>
	<path fill="#CDCCCC" d="M612.6 340.6h-38.1c-2 0-3.2 1.6-3.2 3.2c0 2 1.6 3.2 3.2 3.2h38.1c2 0 3.2-1.6 3.2-3.2 C615.8 341.8 614.6 340.6 612.6 340.6z"/>
	<path fill="#CDCCCC" d="M630.7 337.8c-2.8 0-5.2 2.4-5.2 5.2s2.4 5.2 5.2 5.2h16.4c2.8 0 5.2-2.4 5.2-5.2s-2.4-5.2-5.2-5.2H630.7z"/>
	<path fill="#CDCCCC" d="M538.9 348.2h16.4c2.8 0 5.2-2.4 5.2-5.2c0-2.8-2.4-5.2-5.2-5.2h-16.4c-2.8 0-5.2 2.4-5.2 5.2 C533.3 345.8 535.7 348.2 538.9 348.2z"/>
	<path fill="#CDCCCC" d="M280 188.5v423h640v-423H280z M522.5 351.4c0-0.8 0-2 0.4-2.8c-0.4-1.2-0.4-2.8-0.4-4.4v-9.6 c0-3.6 1.2-6.8 2.8-10l12.8-30.3c4.4-12.4 10-24.3 25.6-24.3h58.9c15.2 0 21.6 11.6 25.6 24.3v0.4l12 30.3c0 0.8 0.4 1.2 0.4 2 c1.2 2.4 1.6 5.2 1.6 8v9.6c0 1.6 0 2.8-0.4 4.4c0.4 0.8 0.4 1.6 0.4 2.8v27.9c0 4-3.2 7.6-7.6 7.6h-14.4c-4 0-7.6-3.2-7.6-7.6 v-13.9h-79.7v13.9c0 4-3.2 7.6-7.6 7.6h-15.6c-4 0-7.6-3.2-7.6-7.6v-28.3H522.5z M537.7 463c-6 0-9.6-3.6-9.6-8.4 c0-4.8 3.6-8 10.4-8h8.4v-0.8c0-3.6-2-5.6-6.4-5.6c-2.8 0-5.2 0.8-8 2.8l-2.4-4c3.6-2.4 6.4-3.6 11.6-3.6c6.8 0 10.8 3.6 10.8 9.6 V463h-5.6v-3.2C544.5 461.8 541.3 463 537.7 463z M476.8 435.9h6v5.2c2-4 5.2-5.6 10-5.6s8 2.4 9.6 6.4c1.6-4.4 5.2-6.4 10.4-6.4 c6.4 0 10 4 10 10.4v16.7h-6.4v-15.1c0-4-2.4-6.8-6.4-6.8c-4.8 0-7.6 3.6-7.6 8.4v13.5h-6v-15.1c0-4-2.4-6.8-6.4-6.8 c-4.8 0-7.6 3.6-7.6 8.4v13.5h-6v-26.7H476.8z M468 463h-6v-35.5h6V463z M506.4 523.9l-3.6-8h-18l-3.6 8h-6.4l15.6-35.5h6 l15.6 35.5H506.4z M528.1 523.9h-6l-10.4-27.1h6l7.6 21.5l7.6-21.5h6L528.1 523.9z M558.5 523.9v-3.2c-2 2.4-5.2 3.6-8.8 3.6 c-6 0-9.6-3.6-9.6-8.4s3.6-8 10.4-8h8.4v-0.8c0-3.6-2-5.6-6.4-5.6c-2.8 0-5.2 0.8-8 2.8l-2.4-4c3.6-2.4 6.4-3.6 11.6-3.6 c6.8 0 10.8 3.6 10.8 9.6v17.9h-6V523.9z M577.8 523.9h-6v-27.1h6V523.9z M575 492.5c-2 0-3.6-1.6-3.6-3.6s1.6-3.6 3.6-3.6 c2 0 3.6 1.6 3.6 3.6C578.2 491.3 577 492.5 575 492.5z M584.6 460.2c0 8-5.6 12.8-14 12.8c-4.4 0-8-1.2-11.2-3.6l2.4-4.4 c2.4 2 5.2 2.8 8.4 2.8c5.2 0 8.4-3.2 8.4-7.6v-3.6c-2 2.8-4.8 4.4-8.8 4.4c-7.2 0-12.4-5.2-12.4-13.2c0-7.6 4.8-12.8 12-12.8 c4 0 7.2 1.6 9.2 4.4v-4.4h6V460.2z M592.6 523.9h-6v-37.9h6V523.9z M590.6 449.4c0-8.4 5.6-13.5 13.6-13.9 c9.6 0 13.6 6.4 12.8 15.9h-20.4c0.8 4 4 6.8 8.4 6.8c2.8 0 5.6-1.2 7.6-3.2l3.2 3.2c-2.8 2.8-6.4 4.4-11.2 4.4 C595.8 463 590.6 457.4 590.6 449.4z M617.8 523.9v-3.2c-2 2.4-5.2 3.6-8.8 3.6c-6 0-9.6-3.6-9.6-8.4s3.6-8 10.4-8h8.4v-0.8 c0-3.6-2-5.6-6.4-5.6c-2.8 0-5.2 0.8-8 2.8l-2.4-4c3.6-2.4 6.4-3.6 11.6-3.6c6.8 0 10.8 3.6 10.8 9.6v17.9h-6V523.9z M647.5 523.9 c-4.4 0-7.6-1.6-9.6-4.8v4.8h-6v-37.9h6v15.5c2-3.2 5.2-4.8 9.6-4.8c7.6 0 12.8 5.6 12.8 13.9C660.3 518.8 655.1 523.9 647.5 523.9 z M642.7 437.5V463h-6v-35.5h6l19.2 25.5v-25.5h6V463h-6L642.7 437.5z M672.7 523.9h-6v-37.9h6V523.9z M674.3 449.4 c0-8.4 5.6-13.5 14-13.5s14 5.6 14 13.5s-5.6 13.5-14 13.5C679.9 463 674.3 457.4 674.3 449.4z M705.6 512.8h-20.8 c0.8 4 4 6.8 8.4 6.8c2.8 0 5.6-1.2 7.6-3.2l3.2 3.2c-2.8 2.8-6.4 4.4-11.2 4.4c-8.4 0-14-5.6-14-13.5c0-8.4 5.6-13.5 13.6-13.9 C702.4 496.4 706 502.8 705.6 512.8z M717.6 463c-4 0-7.6-2.4-7.6-8V441h-4v-4.4h4v-7.6h6v7.6h8v4.4h-8v13.2c0 2.8 1.2 3.6 2.8 3.6 c1.2 0 2.4-0.4 4-1.2l1.6 4.4C722 462.6 719.6 463 717.6 463z"/>
</g>
</svg>